<svg xmlns="http://www.w3.org/2000/svg" viewBox="0 0 274.56 266.85"><title>svg_d2d</title><g id="Layer_2" data-name="Layer 2"><text transform="translate(37.6 262.58)" style="font-size:15px;font-family:Varela, Varela">- The smarter way to Bill Easy !</text><circle cx="150.5" cy="111.5" r="108" style="fill:#ffecb3"/><circle cx="150.5" cy="111.5" r="108" style="fill:none;stroke:#ffc02f;stroke-linecap:round;stroke-linejoin:round;stroke-width:7px;stroke-dasharray:14.752412796020508,14.752412796020508"/><path d="M297.47,179H271.1a3.24,3.24,0,0,0-3.17,2.57l-5.4,25.34H118a3.1,3.1,0,0,0-1.22.22,3.27,3.27,0,0,0-1.92,3.84l18.08,69a3.24,3.24,0,0,0,3.14,2.42h110.4l-3.59,16.86H139.94a3.32,3.32,0,0,0-3.3,2.57,3.25,3.25,0,0,0,3.18,3.91H245.49a3.24,3.24,0,0,0,3.17-2.57l25.06-117.73h23.62a3.32,3.32,0,0,0,3.3-2.57A3.25,3.25,0,0,0,297.47,179ZM138.56,275.95,122.18,213.4h139l-13.32,62.55Z" transform="translate(-112.72 -133.5)" style="fill:#616161"/><path d="M149,308.8a11.18,11.18,0,1,0,9.62,9.62A11.19,11.19,0,0,0,149,308.8Zm-.38,15.65A4.69,4.69,0,1,1,152.1,321,4.7,4.7,0,0,1,148.6,324.45Z" transform="translate(-112.72 -133.5)" style="fill:#616161"/><path d="M239.09,308.8a11.18,11.18,0,1,0,9.62,9.62A11.19,11.19,0,0,0,239.09,308.8Zm-.38,15.65A4.69,4.69,0,1,1,242.2,321,4.7,4.7,0,0,1,238.71,324.45Z" transform="translate(-112.72 -133.5)" style="fill:#616161"/><path d="M287.22,335.5h-172a2.5,2.5,0,1,1,0-5h172a2.5,2.5,0,1,1,0,5Z" transform="translate(-112.72 -133.5)" style="fill:#616161"/><rect x="277.28" y="157.4" width="2.02" height="20" transform="translate(-147.55 -52.27) rotate(-15.64)" style="fill:#8bc34a"/><path d="M280,178.3a1,1,0,0,1-1-.73l-5.39-19.26a1,1,0,0,1,.69-1.23l1.94-.54a1,1,0,0,1,1.23.69l5.39,19.26a1,1,0,0,1-.69,1.23l-1.94.54A1,1,0,0,1,280,178.3Zm-4.16-19.57,4.85,17.33h0l-4.85-17.33Z" transform="translate(-112.72 -133.5)" style="fill:#8bc34a"/><line x1="167.5" y1="48.5" x2="160.5" y2="23.5" style="fill:#616161"/><path d="M280.22,183.5a1.5,1.5,0,0,1-1.44-1.1l-7-25a1.5,1.5,0,0,1,2.89-.81l7,25a1.5,1.5,0,0,1-1.45,1.9Z" transform="translate(-112.72 -133.5)" style="fill:#616161"/><line x1="163.5" y1="36.5" x2="161.5" y2="45.5" style="fill:#616161"/><path d="M274.22,180l-.22,0a1,1,0,0,1-.76-1.19l2-9a1,1,0,0,1,2,.43l-2,9A1,1,0,0,1,274.22,180Z" transform="translate(-112.72 -133.5)" style="fill:#616161"/><path d="M383.12,230.26H314.57a3.82,3.82,0,0,1-3.73-4.39,4.78,4.78,0,0,1,4.53-4.34h30.81a4.47,4.47,0,0,0,4.31-4.29,3.93,3.93,0,0,0-3.86-4.24H262.33l-10.41,64h63.83a5.19,5.19,0,0,0,4.8-4.92c.22-2.68-1.57-4.87-4-4.87h-4.35c-2.39,0-4.14-2.17-3.89-4.81a5.13,5.13,0,0,1,4.76-4.75h25.8a4.84,4.84,0,0,0,4.55-4.7,4.19,4.19,0,0,0-4-4.64H314a4,4,0,0,1-3.81-4.59,4.94,4.94,0,0,1,4.64-4.54h68.28a4.37,4.37,0,0,0,4.2-4.49A4.31,4.31,0,0,0,383.12,230.26Z" transform="translate(-112.72 -133.5)" style="fill:#616161"/><path d="M358.52,221.53h4.11a4.36,4.36,0,0,0,4.22-4.29,4,4,0,0,0-4-4.24h-4.06a4.39,4.39,0,0,0-4.24,4.24A4,4,0,0,0,358.52,221.53Z" transform="translate(-112.72 -133.5)" style="fill:#616161"/><path d="M336.16,267.21h-6.53a5.09,5.09,0,0,0-4.72,4.87c-.2,2.7,1.61,4.92,4,4.92h6.6a5,5,0,0,0,4.68-4.92C340.39,269.39,338.56,267.21,336.16,267.21Z" transform="translate(-112.72 -133.5)" style="fill:#616161"/><line x1="27" y1="86" x2="39.5" y2="136.5" style="fill:none;stroke:#616161;stroke-linecap:round;stroke-miterlimit:10;stroke-width:5px"/><line x1="50" y1="86" x2="62.5" y2="136.5" style="fill:none;stroke:#616161;stroke-linecap:round;stroke-miterlimit:10;stroke-width:5px"/><line x1="93" y1="86" x2="105.5" y2="136.5" style="fill:none;stroke:#616161;stroke-linecap:round;stroke-miterlimit:10;stroke-width:5px"/><line x1="72" y1="86" x2="84.5" y2="136.5" style="fill:none;stroke:#616161;stroke-linecap:round;stroke-miterlimit:10;stroke-width:5px"/><line x1="119" y1="86" x2="131.5" y2="136.5" style="fill:none;stroke:#616161;stroke-linecap:round;stroke-miterlimit:10;stroke-width:5px"/><polygon points="174.82 21.06 169.28 25.09 174.43 25.54 168.89 29.58 174.82 21.06" style="fill:#ff9e80"/><polygon points="179.56 34.24 172.75 34.91 176.96 37.91 170.14 38.58 179.56 34.24" style="fill:#ff9e80"/><polygon points="187.8 23.08 180.19 25.1 185.52 27.72 177.9 29.74 187.8 23.08" style="fill:#ff9e80"/></g></svg>